<?xml version="1.0" encoding="utf-8"?>
<!-- Generator: Adobe Illustrator 18.1.1, SVG Export Plug-In . SVG Version: 6.00 Build 0)  -->
<svg version="1.1" id="Layer_1" xmlns="http://www.w3.org/2000/svg" xmlns:xlink="http://www.w3.org/1999/xlink" x="0px" y="0px"
	 viewBox="0 0 200 200" enable-background="new 0 0 200 200" xml:space="preserve">
<g>
	<path fill="#6F6F9B" d="M167,168.6H31.5c-5.5,0-10-4.5-10-10V39.5c0-5.5,4.5-9.9,9.9-9.9H167c5.5,0,9.9,4.5,9.9,9.9v119.2
		C176.9,164.2,172.5,168.6,167,168.6z"/>
	<path fill="#FFFFFF" d="M138.2,66.6c-0.1,0-0.2,0-0.3,0l0,0H60.2c-3.9,0-7.1,3.2-7.1,7.1s3.2,7.1,7.1,7.1h77.7l0,0
		c0.1,0,0.2,0,0.3,0c3.9,0,7.1-3.2,7.1-7.1C145.2,69.7,142.1,66.6,138.2,66.6z"/>
	<path fill="#FFFFFF" d="M138.2,92c-0.1,0-0.2,0-0.3,0l0,0H60.3h-0.1c-3.9,0-7.1,3.2-7.1,7.1s3.2,7.1,7.1,7.1l0,0h77.7l0,0
		c0.1,0,0.2,0,0.3,0c3.9,0,7.1-3.2,7.1-7.1C145.2,95.2,142.1,92,138.2,92z"/>
	<path fill="#FFFFFF" d="M138.2,117.4c-0.1,0-0.2,0-0.3,0l0,0H60.4c-0.1,0-0.1,0-0.2,0c-3.9,0-7.1,3.2-7.1,7.1
		c0,3.9,3.2,7.1,7.1,7.1l0,0h77.7l0,0c0.1,0,0.2,0,0.3,0c3.9,0,7.1-3.2,7.1-7.1C145.2,120.6,142.1,117.4,138.2,117.4z"/>
</g>
</svg>
