<?xml version="1.0" encoding="utf-8"?>
<!-- Generator: Adobe Illustrator 18.1.1, SVG Export Plug-In . SVG Version: 6.00 Build 0)  -->
<svg version="1.1" id="Layer_1" xmlns="http://www.w3.org/2000/svg" xmlns:xlink="http://www.w3.org/1999/xlink" x="0px" y="0px"
	 viewBox="0 0 330 330" enable-background="new 0 0 330 330" xml:space="preserve">
<g>
	<defs>
		<circle id="SVGID_1_" cx="165.4" cy="165" r="143.8"/>
	</defs>
	<clipPath id="SVGID_2_">
		<use xlink:href="#SVGID_1_"  overflow="visible"/>
	</clipPath>
	
		<circle clip-path="url(#SVGID_2_)" fill="none" stroke="#50467C" stroke-width="20" stroke-miterlimit="10" cx="165.4" cy="165" r="143.8"/>
	<polygon clip-path="url(#SVGID_2_)" fill="#00CED0" points="165.4,115.6 165.4,115.3 165.2,115.4 165,115.3 165,115.6 -38.4,319.1 
		165,319.1 165.4,319.1 368.8,319.1 	"/>
	<polygon clip-path="url(#SVGID_2_)" fill="#07FEE1" points="165.3,115.6 165.3,115.3 165.2,115.4 165.1,115.3 165.1,115.6 
		16,319.1 165.1,319.1 165.3,319.1 314.4,319.1 	"/>
	<polygon clip-path="url(#SVGID_2_)" fill="#FFFFFF" points="165.3,115.6 165.3,115.3 165.2,115.4 165.1,115.3 165.1,115.6 
		77.1,319.1 165.1,319.1 165.3,319.1 253.3,319.1 	"/>
	<path clip-path="url(#SVGID_2_)" fill="#726B9B" d="M236.5,161.1c-1.1-1.7-5.1-5.9-8.8-9.3l-8.3-7.6c-3.7-3.4-7.9-7.5-9.3-9.2
		s-5.4-9.6-7.4-14.2l-31.2-71.9c-2-4.6-4-8.9-4.4-9.4c-0.4-0.6-1.8-0.9-2.2-0.7c-0.4,0.2-3,5.5-5,10.1l-31.2,71.9
		c-2,4.6-4.6,9.9-5.7,11.8c-1.1,1.8-7.3,8.2-11,11.6l-8.3,7.6c-3.7,3.4-7.7,7.6-8.8,9.3c-1.1,1.7-1.9,10.2-1.9,15.3l63.9,12.5
		c4.8,1.6,8.7,2.9,8.7,2.9c0,0,3.9-1.3,8.7-2.9l64-12.5C238.4,171.3,237.6,162.8,236.5,161.1z"/>
</g>
</svg>
