<?xml version="1.0" encoding="utf-8"?>
<!-- Generator: Adobe Illustrator 18.1.1, SVG Export Plug-In . SVG Version: 6.00 Build 0)  -->
<svg version="1.1" id="Layer_1" xmlns="http://www.w3.org/2000/svg" xmlns:xlink="http://www.w3.org/1999/xlink" x="0px" y="0px"
	 viewBox="0 0 200 200" enable-background="new 0 0 200 200" xml:space="preserve">
<g>
	<g>
		<g>
			<g>
				<g>
					<defs>
						<circle id="SVGID_1_" cx="100" cy="100" r="100"/>
					</defs>
					<clipPath id="SVGID_2_">
						<use xlink:href="#SVGID_1_"  overflow="visible"/>
					</clipPath>
					
						<circle clip-path="url(#SVGID_2_)" fill="none" stroke="#50467C" stroke-width="8.6057" stroke-miterlimit="10" cx="100" cy="100" r="100"/>
				</g>
			</g>
		</g>
	</g>
	<g>
		<g>
			<g>
				<g>
					<defs>
						<circle id="SVGID_3_" cx="100" cy="100" r="100"/>
					</defs>
					<clipPath id="SVGID_4_">
						<use xlink:href="#SVGID_3_"  overflow="visible"/>
					</clipPath>
					<polygon clip-path="url(#SVGID_4_)" fill="#00CED0" points="100,65.6 100,65.3 100,65.6 99.8,65.3 99.8,65.6 -41.6,207.2 
						99.8,207.2 100,207.2 241.6,207.2 					"/>
				</g>
			</g>
		</g>
	</g>
	<g>
		<g>
			<g>
				<g>
					<defs>
						<circle id="SVGID_5_" cx="100" cy="100" r="100"/>
					</defs>
					<clipPath id="SVGID_6_">
						<use xlink:href="#SVGID_5_"  overflow="visible"/>
					</clipPath>
					<polygon clip-path="url(#SVGID_6_)" fill="#07FEE1" points="100,65.6 100,65.3 100,65.6 100,65.3 100,65.6 -3.8,207.2 
						100,207.2 100,207.2 203.8,207.2 					"/>
				</g>
			</g>
		</g>
	</g>
	<g>
		<g>
			<g>
				<g>
					<defs>
						<circle id="SVGID_7_" cx="100" cy="100" r="100"/>
					</defs>
					<clipPath id="SVGID_8_">
						<use xlink:href="#SVGID_7_"  overflow="visible"/>
					</clipPath>
					<polygon clip-path="url(#SVGID_8_)" fill="#FFFFFF" points="100,65.6 100,65.3 100,65.6 100,65.3 100,65.6 38.7,207.2 
						100,207.2 100,207.2 161.3,207.2 					"/>
				</g>
			</g>
		</g>
	</g>
	<g>
		<g>
			<g>
				<g>
					<defs>
						<circle id="SVGID_9_" cx="100" cy="100" r="100"/>
					</defs>
					<clipPath id="SVGID_10_">
						<use xlink:href="#SVGID_9_"  overflow="visible"/>
					</clipPath>
					<path clip-path="url(#SVGID_10_)" fill="#726B9B" d="M149.6,97.3c-0.9-1.1-3.4-4-6.1-6.4l-5.9-5.3c-2.7-2.5-5.6-5.3-6.4-6.4
						c-1.1-1.1-3.7-6.6-5-9.8l-21.7-50.1c-1.3-3.2-2.7-6.1-2.9-6.6c-0.2-0.5-1.3-0.5-1.6-0.5c-0.2,0.2-2.1,3.7-3.4,7L75,69.1
						c-1.3,3.2-3.2,7-4,8.2c-0.9,1.3-5,5.6-7.7,8l-5.9,5.3c-2.7,2.5-5.3,5.3-6.1,6.4c-0.9,1.1-1.3,7.2-1.3,10.7l44.5,8.8
						c3.4,1.1,6.1,2.1,6.1,2.1s2.7-0.9,6.1-2.1l44.5-8.8C150.9,104.3,150.4,98.4,149.6,97.3z"/>
				</g>
			</g>
		</g>
	</g>
</g>
</svg>
