<?xml version="1.0" encoding="utf-8"?>
<!-- Generator: Adobe Illustrator 18.1.1, SVG Export Plug-In . SVG Version: 6.00 Build 0)  -->
<svg version="1.1" id="Layer_1" xmlns="http://www.w3.org/2000/svg" xmlns:xlink="http://www.w3.org/1999/xlink" x="0px" y="0px"
	 viewBox="0 0 266.7 104.7" enable-background="new 0 0 266.7 104.7" xml:space="preserve">
<g>
	<path fill="#FFA700" d="M258.9,87.7c-81.3-44.7-159.4,44.7-240.6,0c3.9-7.9,5.8-12,9.7-20.5c-3.3-10.5-6.5-21.1-9.7-31.7
		c81.3,44.7,159.3-44.7,240.6,0c-4,7.9-5.9,12-9.9,20.4C252.4,66.5,255.7,77.1,258.9,87.7z"/>
</g>
<g>
	<path fill="#F23030" d="M253.8,82.6c-81.3-44.7-159.4,44.7-240.6,0c3.9-7.9,5.8-12,9.7-20.5c-3.3-10.5-6.5-21.1-9.7-31.7
		c81.3,44.7,159.3-44.7,240.6,0c-4,7.9-5.9,12-9.9,20.4C247.3,61.4,250.6,72,253.8,82.6z"/>
</g>
<g>
	<path fill="#33CC33" d="M248.7,77.4c-81.3-44.7-159.4,44.7-240.6,0c3.9-7.9,5.8-12,9.7-20.5c-3.3-10.5-6.5-21.1-9.7-31.7
		c81.3,44.7,159.3-44.7,240.6,0c-4,7.9-5.9,12-9.9,20.4C242.1,56.3,245.4,66.8,248.7,77.4z"/>
	<g>
		<path fill="#FFFFFF" d="M54.2,61.4c-1.1,0.2-1.7-0.4-1.8-1.5c-0.4-2.3-2.2-3.9-4.9-4.2c-2.2-0.3-3.5,0.8-3.3,2.1
			C45,62.3,62.6,63.1,62.6,76c0,1.7-1.9,12.5-15.2,11c-11.8-1.4-14.3-10.6-14.6-15c-0.1-1,0.4-1.5,1.5-1.4c2.5,0.1,3.8,0.1,6.3,0.1
			c1.1,0,1.7,0.6,1.8,1.8c0.2,2.7,2.3,4.7,4.9,5c2.7,0.3,4.8-1.2,4.4-2.7c-1.1-4.8-17.7-6.9-17.9-19.6c0-1.7,1-10.4,13.5-9
			C59,47.4,61.7,54.2,62,58.2c0.1,1-0.4,1.6-1.5,1.9C58,60.7,56.7,61,54.2,61.4z"/>
		<path fill="#FFFFFF" d="M80.7,45.6c10-1.7,14,1.3,14,10.5s-4,14.7-14,16.4c-1.1,0.2-1.6,0.3-2.7,0.4c-1.1,0.2-1.7,0.8-1.7,1.9
			c0,3.6,0,5.4,0,9c0,1.1-0.6,1.8-1.7,1.9c-2.5,0.3-3.8,0.5-6.3,0.7c-1.1,0.1-1.7-0.5-1.7-1.6c0-11.9,0-23.8,0-35.8
			c0-1.1,0.6-1.7,1.7-1.9C73.3,46.8,75.7,46.5,80.7,45.6z M81,62.8c2.7-0.5,4-1.1,4-4.6c0-3.5-1.3-3.5-4-3.1c-1.2,0.2-1.8,0.3-3,0.5
			c-1.1,0.2-1.7,0.8-1.7,1.9c0,1.7,0,2.6,0,4.3c0,1.1,0.6,1.6,1.7,1.4C79.2,63.1,79.8,63,81,62.8z"/>
		<path fill="#FFFFFF" d="M125.7,60c0,3.7-0.8,14-14.1,18.1c-13.3,4.1-14.1-5.9-14.1-9.6c0-5.6,0-8.4,0-14c0-3.7,0.8-13.6,14.1-17.6
			c13.3-4.1,14.1,5.4,14.1,9.1C125.7,51.6,125.7,54.4,125.7,60z M116.1,52.1c0-4.3-0.3-6.8-4.4-5.6c-4.1,1.3-4.4,4-4.4,8.3
			c0,3.2,0,4.8,0,8.1c0,4.3,0.3,6.9,4.4,5.6c4.1-1.3,4.4-4,4.4-8.3C116.1,56.9,116.1,55.3,116.1,52.1z"/>
		<path fill="#FFFFFF" d="M162.2,59.6c0.8,0.9,0.3,1.9-1.1,2.3c-3.4,0.8-5,1.3-8.4,2.3c-0.9,0.3-1.5,0.1-2-0.5
			c-2.8-3.4-4.2-5.2-6.9-8.5c-0.2-0.3-0.6-0.2-0.8,0.2c-0.9,1.5-1.4,2.3-2.3,3.9c-0.2,0.3-0.2,0.5-0.2,0.8c0,2.5,0,3.7,0,6.2
			c0,1.1-0.6,1.9-1.7,2.2c-2.6,0.8-3.8,1.2-6.4,2.1c-1.1,0.3-1.7-0.1-1.7-1.1c0-11.9,0-23.9,0-35.8c0-1.1,0.6-1.9,1.7-2.2
			c2.6-0.8,3.8-1.2,6.4-2.1c1.1-0.4,1.7,0,1.7,1.1c0,4.5,0,6.8,0,11.3c0,0.6,0.4,0.5,0.7,0c3.5-5.9,5.3-8.9,8.8-14.8
			c0.5-0.9,1.1-1.4,2-1.7c3.3-1,5-1.4,8.3-2.3c1.4-0.4,1.8,0.4,1.1,1.8c-4.5,7.4-6.8,11.1-11.3,18.7c-0.2,0.3-0.2,0.6,0,0.8
			C154.9,50.3,157.3,53.3,162.2,59.6z"/>
		<path fill="#FFFFFF" d="M190.8,17.7c1.1-0.1,1.7,0.5,1.7,1.6c0,2.5,0,3.8,0,6.3c0,1.1-0.6,1.7-1.7,1.8c-5.4,0.3-8.1,0.7-13.5,1.6
			c-1.1,0.2-1.7,0.8-1.7,2c0,0.7,0,1.1,0,1.8c0,1.1,0.6,1.6,1.7,1.4c3.5-0.6,5.2-0.8,8.7-1.2c1.1-0.1,1.7,0.4,1.7,1.5
			c0,2.5,0,3.8,0,6.3c0,1.1-0.6,1.7-1.7,1.8c-3.5,0.4-5.2,0.6-8.7,1.2c-1.1,0.2-1.7,0.8-1.7,2c0,0.7,0,1.1,0,1.8
			c0,1.1,0.6,1.6,1.7,1.4c5.4-0.9,8.1-1.2,13.5-1.6c1.1-0.1,1.7,0.5,1.7,1.6c0,2.5,0,3.8,0,6.3c0,1.1-0.6,1.7-1.7,1.8
			c-9.4,0.6-14.1,1.4-23.5,3.5c-1.1,0.2-1.7-0.2-1.7-1.3c0-11.9,0-23.9,0-35.8c0-1.1,0.6-1.8,1.7-2.1
			C176.7,19.1,181.4,18.3,190.8,17.7z"/>
		<path fill="#FFFFFF" d="M215.2,32.9c-1.1,0-1.7-0.6-1.8-1.7c-0.4-2.4-2.2-4.1-4.9-4.4c-2.2-0.2-3.5,1-3.3,2.3
			c6.5,7,18.3,8.7,18.5,20.4c0,1.7-1.9,10.1-15.2,8.6c-11.8-1.3-14.3-8.2-14.6-12.6c-0.1-1,0.4-1.6,1.5-1.9c2.5-0.6,3.8-0.9,6.3-1.4
			c1.1-0.2,1.7,0.4,1.8,1.5c0.2,2.7,2.3,4.4,4.9,4.7c2.7,0.3,4.8-1,4.4-2.6c-1.1-4.9-17.7-5-17.9-17.7c0-1.7,1-12.4,13.5-11.1
			c11.5,1.2,14.2,10.2,14.6,14.3c0.1,1-0.4,1.5-1.5,1.5C219,32.8,217.8,32.8,215.2,32.9z"/>
	</g>
</g>
</svg>
