<?xml version="1.0" encoding="utf-8"?>
<!-- Generator: Adobe Illustrator 18.1.1, SVG Export Plug-In . SVG Version: 6.00 Build 0)  -->
<svg version="1.1" id="Layer_1" xmlns="http://www.w3.org/2000/svg" xmlns:xlink="http://www.w3.org/1999/xlink" x="0px" y="0px"
	 viewBox="0 0 118 408" enable-background="new 0 0 118 408" xml:space="preserve">
<g>
	<g>
		<g>
			<g>
				<g>
					<ellipse fill="#00CED0" cx="68.3" cy="305.4" rx="3.9" ry="5.1"/>
					<ellipse fill="#00CED0" cx="68.3" cy="337.6" rx="3.9" ry="5.1"/>
					<rect x="64.5" y="305.4" fill="#00CED0" width="7.7" height="32.2"/>
				</g>
				<path fill="#00CED0" d="M22.5,143.9v57.8v88.2v9.7c0,2.8,2.3,5.1,5.1,5.1s5.1-2.3,5.1-5.1v-9.7l0,0v-12.1c0-2.8,2.3-5.1,5.1-5.1
					s5.1,2.3,5.1,5.1v80c0,2.8,2.3,5.1,5.1,5.1c2.8,0,5.1-2.3,5.1-5.1v-68V229c0-2.8,2.3-5.1,5.1-5.1s5.1,2.3,5.1,5.1v61.8
					c0,2.8,2.3,5.1,5.1,5.1c2.8,0,5.1-2.3,5.1-5.1v-0.9v-81.8c0-2.8,2.3-5.1,5.1-5.1c2.8,0,5.1,2.3,5.1,5.1v81.8v16.2v77.4
					c0,2.8,2.3,5.1,5.1,5.1c2.8,0,5.1-2.3,5.1-5.1v-98c0,0,0,0,0,0V143.9H22.5z"/>
				<path fill="#07FEE1" d="M32.7,143.9v116.8v51.2c0,2.8,2.3,5.1,5.1,5.1s5.1-2.3,5.1-5.1v-51.2v-55.8c0-2.8,2.3-5.1,5.1-5.1
					c2.8,0,5.1,2.3,5.1,5.1v98c0,0,0,0,0,0v36.1c0,2.8,2.3,5.1,5.1,5.1s5.1-2.3,5.1-5.1v-78.2v-19.8c0-2.8,2.3-5.1,5.1-5.1
					c2.8,0,5.1,2.3,5.1,5.1v19.8V323c0,2.8,2.3,5.1,5.1,5.1c2.8,0,5.1-2.3,5.1-5.1v-62.3V143.9H32.7z"/>
				<path fill="#FFFFFF" d="M58.1,128.6c-8.4,0-15.3,6.8-15.3,15.3v87.6v13.7c0,2.8,2.3,5.1,5.1,5.1c2.8,0,5.1-2.3,5.1-5.1v-42.1
					c0-2.8,2.3-5.1,5.1-5.1c2.8,0,5.1,2.3,5.1,5.1v28.3v34.4c0,2.8,2.3,5.1,5.1,5.1c2.8,0,5.1-2.3,5.1-5.1v-34.4v-63.6v-24
					C73.4,135.4,66.6,128.6,58.1,128.6z"/>
				<circle fill="#FFFFFF" cx="47.9" cy="258.5" r="3.9"/>
				<circle fill="#00CED0" cx="27.6" cy="315.9" r="3.9"/>
				<circle fill="#00CED0" cx="68.3" cy="352.7" r="3.9"/>
				<circle fill="#07FEE1" cx="37.7" cy="328.3" r="3.9"/>
				<circle fill="#07FEE1" cx="58.3" cy="355.1" r="3.9"/>
				<g>
					<ellipse fill="#FFFFFF" cx="68.3" cy="282.2" rx="3.9" ry="5.1"/>
					<ellipse fill="#FFFFFF" cx="68.3" cy="316.1" rx="3.9" ry="5.1"/>
					<rect x="64.5" y="282.2" fill="#FFFFFF" width="7.7" height="33.9"/>
				</g>
				<g>
					<ellipse fill="#07FEE1" cx="58.1" cy="371.4" rx="3.9" ry="5.1"/>
					<ellipse fill="#07FEE1" cx="58.1" cy="388.4" rx="3.9" ry="5.1"/>
					<rect x="54.3" y="371.4" fill="#07FEE1" width="7.7" height="17"/>
				</g>
				<g>
					<ellipse fill="#07FEE1" cx="78.5" cy="339.2" rx="3.9" ry="5.1"/>
					<ellipse fill="#07FEE1" cx="78.5" cy="356.2" rx="3.9" ry="5.1"/>
					<rect x="74.6" y="339.2" fill="#07FEE1" width="7.7" height="17"/>
				</g>
			</g>
		</g>
	</g>
	<path fill="#CCCCCC" d="M47.9,69.5c-1.1-2.1-2.2-7.4-2.2-7.4l-2.2-37c0,0,0-1.1,0-2.2c0-1.1-0.9-0.2-0.9-1.3c0-1.1,0.9-1.1,0.9-2
		c0-0.9-2-1.3-2-1.3H37h-0.5H32c0,0-2,0.4-2,1.3c0,0.9,0.9,0.9,0.9,2c0,1.1-0.9,0.2-0.9,1.3c0,1.1,0,2.2,0,2.2l-2.2,37
		c0,0-1.1,5.3-2.2,7.4c-5.2,9.5-6.1,9-6.1,24.8c0,15.8,0,58.5,0,58.5s0,6.1,3.5,9.4c2.3,2.2,5.2,1.8,5.2,1.8h4.2H41h4.2
		c0,0,2.9,0.3,5.2-1.8c3.5-3.3,3.5-9.4,3.5-9.4s0-42.7,0-58.5C54,78.6,53.1,79.1,47.9,69.5z"/>
	<path fill="#CCCCCC" d="M90.7,69.5c-1.1-2.1-2.2-7.4-2.2-7.4l-2.2-37c0,0,0-1.1,0-2.2c0-1.1-0.9-0.2-0.9-1.3c0-1.1,0.9-1.1,0.9-2
		c0-0.9-2-1.3-2-1.3h-4.5h-0.5h-4.5c0,0-2,0.4-2,1.3c0,0.9,0.9,0.9,0.9,2c0,1.1-0.9,0.2-0.9,1.3c0,1.1,0,2.2,0,2.2l-2.2,37
		c0,0-1.1,5.3-2.2,7.4c-5.2,9.5-6.1,9-6.1,24.8c0,15.8,0,58.5,0,58.5s0,6.1,3.5,9.4c2.3,2.2,5.2,1.8,5.2,1.8h4.2h8.6H88
		c0,0,2.9,0.3,5.2-1.8c3.5-3.3,3.5-9.4,3.5-9.4s0-42.7,0-58.5C96.7,78.6,95.9,79.1,90.7,69.5z"/>
	<path fill="#999999" d="M79.2,88.3c0.9-11.1-0.4-11.6-3.4-13.8c-2.9-2.2-2.9-5.5-2.9-5.5l-4.5-37.3c0,0-1.5-5.9-0.4-7.3
		c1.1-1.4,1.4-1.4,0.1-3.2c-1.3-1.8-0.6-2.6-0.6-2.6l1.4-0.4c0,0-0.6-4.7-2.6-4.8c-1.9-0.1-7.3,0-8.3,0c-0.9,0-6.4-0.1-8.3,0
		c-2,0.1-2.6,4.8-2.6,4.8l1.4,0.4c0,0,0.6,0.8-0.6,2.6c-1.3,1.8-1,1.8,0.1,3.2c1.1,1.4-0.4,7.3-0.4,7.3L43.3,69c0,0,0,3.2-2.9,5.5
		c-2.9,2.2-4.3,2.7-3.4,13.8c0.9,11.1,2.8,44.6,2.8,44.6s1,10,0.1,14.7c-0.9,4.7-3.3,2.8-2.4,12c0.9,9.2,0.7,9.7,3.9,11.2
		c3.2,1.5,8.3,1.5,11.3,1.5c0.6,0,1.4,0,2.2,0c3,0,6.6,0,6.6,0c0.8,0,1.6,0,2.2,0c3,0,8.1,0,11.3-1.5c3.2-1.5,3-2,3.9-11.2
		c0.9-9.2-1.5-7.3-2.4-12c-0.9-4.7,0.1-14.7,0.1-14.7S78.3,99.3,79.2,88.3z"/>
</g>
</svg>
